<?xml version="1.0" encoding="utf-8"?>
<!-- Generator: Adobe Illustrator 24.1.1, SVG Export Plug-In . SVG Version: 6.00 Build 0)  -->
<svg version="1.1" id="Layer_1" xmlns="http://www.w3.org/2000/svg" xmlns:xlink="http://www.w3.org/1999/xlink" x="0px" y="0px"
	 viewBox="0 0 64 64" style="enable-background:new 0 0 64 64;" xml:space="preserve">
<style type="text/css">
	.st0{fill:url(#SVGID_1_);}
	.st1{fill:#FFFFFF;}
</style>
<g>
	
		<linearGradient id="SVGID_1_" gradientUnits="userSpaceOnUse" x1="5.5339" y1="5.7252" x2="57.5746" y2="60.8269" gradientTransform="matrix(1 0 0 -1 0 65.748)">
		<stop  offset="0" style="stop-color:#AA0004"/>
		<stop  offset="1" style="stop-color:#FF151B"/>
	</linearGradient>
	<path class="st0" d="M51.7,64H12.3C5.5,64,0,58.5,0,51.7V12.3C0,5.5,5.5,0,12.3,0h39.3C58.5,0,64,5.5,64,12.3v39.3
		C64,58.5,58.5,64,51.7,64z"/>
	<g>
		<path class="st1" d="M35.2,8.7c0.7,2.8,0.5,4.1-3.3,7.3s-4.4,3.2-4.4,5.2s2.9,5.1,4.3,6c0,0-0.2-0.6-0.8-1.4
			c-0.5-0.9-2.1-2.3-1.8-4.5s5-5,6.2-7.1C36.6,12,36.3,10.2,35.2,8.7z"/>
		<path class="st1" d="M39.4,15.7c-3.3,1.1-7.4,2.8-7.4,6.1s2.1,2.7,2.1,4.5c0,1.8-1.2,2.3-1.2,2.3s3-1.2,2.9-3.5
			c-0.1-2.3-1.9-2-1.9-4.1C34,18.3,39.4,15.7,39.4,15.7z"/>
		<path class="st1" d="M27.8,27.5c-3.3,0-5.6,1.2-5.6,1.9s4,1.3,8.4,1.1c4.4-0.3,6.7-0.7,8.4-1.7c0,0-3.1,0.7-5.5,0.7
			s-9.1,0.4-9-0.6c0.2-1,4.1-1.4,4.1-1.4L27.8,27.5L27.8,27.5z"/>
		<path class="st1" d="M26.6,31.3c-1.7,0.6-2.2,1.3-1.2,1.9c1,0.7,3,0.9,5.8,0.9s6.6-1,6.6-1l-1.3-1c0,0-1.7,0.6-5,0.6
			S25,32.8,26.6,31.3z"/>
		<path class="st1" d="M27.3,35c-1.7,0.6-2.1,1.4-0.6,2.1s4.4,0.9,6.6,0.6c2.1-0.3,4-1,4-1s-1.2-0.4-1.7-1c0,0-2.5,0.5-4.9,0.5
			S26.4,36,27.3,35z"/>
		<path class="st1" d="M40.1,27.7c0,0,0.8-1.1,2.9-0.3c2.1,0.9,2,3.2,0.1,4.5c-1.9,1.4-4.1,1.8-4.1,1.8s4.2-1.8,4.1-4.1
			C43,27.4,41.1,27.5,40.1,27.7z"/>
		<path class="st1" d="M23.3,39.6c6.5,1.2,16.4,0,18.1-0.5c1.7-0.4,1.1-1.4,1.1-1.4c0.4,0.3,0.6,0.6,0.4,1c-1,2-10,2.3-12.7,2.3
			S19.4,41,19.4,39.5c0-1.4,3.8-2.3,5.2-2C22,38.3,20.4,39.1,23.3,39.6z"/>
		<path class="st1" d="M24,41.8c0,0,2.3,1.8,13.7,0.7c4.6-0.4,6.5-1.5,6.7-2.8c0,0-2.1,1.2-4.7,1.7C37.2,41.9,32.9,42.7,24,41.8z"/>
		<path class="st1" d="M23.8,44.3h-1.9c0,1.6,0.1,3,0.1,4.4c0,1.1,0,2.4,0,3.7c0,0.9-0.2,1.6-0.6,2.2c0.4,0.2,0.9,0.4,1.4,0.6
			c0.7-0.8,1.1-1.9,1-3.1c0-1.1,0-2.4,0-3.4C23.7,47.2,23.7,45.8,23.8,44.3z"/>
		<path class="st1" d="M36.6,47l-1.2,3.4c-0.2,0.6-0.4,1.2-0.5,1.8h-0.1c-0.1-0.6-0.2-1.2-0.5-1.8l-0.4-1.1
			c-0.3-0.8-0.5-1.6-0.7-2.4l-1.9,0.2L34,54l1.4-0.1l1.6-4.2c0.3-0.8,0.7-1.8,1.1-2.6L36.6,47z"/>
		<path class="st1" d="M41.9,46.9c-0.8,0-1.7,0.2-2.8,0.8l0.3,1.1l0.1,0.1c0.8-0.6,1.4-0.8,2-0.8c0.7,0,1.2,0.5,1.2,1.2v0.6
			c-3,0.5-3.8,1.4-3.8,2.5c0,1.2,0.8,1.8,1.7,1.8c0.8,0,1.4-0.5,2-1l0.1,0c0.1,0.6,0.5,0.9,1,0.9c0.2-0.1,0.4-0.2,0.6-0.3v-4.7
			C44.3,47.6,43.5,46.9,41.9,46.9z M42.7,52.4c-0.5,0.4-0.9,0.7-1.3,0.7c-0.5,0-0.9-0.3-0.9-0.9c0-0.6,0.4-1.1,2.1-1.4L42.7,52.4
			L42.7,52.4z"/>
		<path class="st1" d="M28.1,46.9c-0.8,0-1.7,0.2-2.8,0.8l0.3,1.1l0.1,0.1c0.8-0.6,1.4-0.8,2-0.8c0.7,0,1.2,0.5,1.2,1.2v0.6
			c-3,0.5-3.8,1.4-3.8,2.5c0,1.2,0.8,1.8,1.7,1.8c0.8,0,1.4-0.5,2-1l0.1,0c0.1,0.7,0.7,0.9,1.2,0.9c0.1,0,0.3,0,0.4,0v-5
			C30.5,47.6,29.7,46.9,28.1,46.9z M28.9,52.4c-0.5,0.4-0.9,0.7-1.3,0.7c-0.5,0-0.9-0.3-0.9-0.9c0-0.6,0.4-1.1,2.1-1.4V52.4z"/>
	</g>
	<g>
		<path class="st1" d="M32.1,34c1-0.1,1.8-0.9,1.9-1.9c0.1-1.2-0.9-2.2-2.1-2.1c-1,0.1-1.8,0.9-1.9,1.9C29.9,33.1,30.9,34.1,32.1,34
			z M30.5,31.9c0-0.8,0.7-1.4,1.4-1.4c0.9-0.1,1.7,0.7,1.6,1.6c0,0.8-0.7,1.4-1.4,1.4C31.2,33.6,30.4,32.8,30.5,31.9L30.5,31.9z"/>
		<path class="st1" d="M28.6,30.9C28.6,30.9,28.5,30.9,28.6,30.9c-0.5,0-0.9,0.4-0.9,0.9v0.4c0,0.5,0.4,0.9,0.9,0.9
			c0.3,0,0.5,0.4,0.3,0.6c-0.3,0.3-0.3,0.9,0,1.3l0.3,0.3c0.3,0.3,0.9,0.3,1.3,0c0.2-0.2,0.6-0.1,0.6,0.3c0,0.5,0.4,0.9,0.9,0.9h0.4
			c0.5,0,0.9-0.4,0.9-0.9c0-0.3,0.4-0.5,0.6-0.3c0.3,0.3,0.9,0.3,1.3,0l0.3-0.3c0.3-0.3,0.3-0.9,0-1.3c-0.2-0.2-0.1-0.6,0.3-0.6h0
			c0.5,0,0.9-0.4,0.9-0.9v-0.4c0-0.5-0.4-0.9-0.9-0.9c0,0,0,0,0,0c0,0,0,0,0,0c-0.3,0-0.5-0.4-0.3-0.6c0.3-0.3,0.3-0.9,0-1.3
			l-0.3-0.3c-0.3-0.3-0.9-0.3-1.2,0c-0.2,0.2-0.6,0.1-0.6-0.3c0-0.5-0.4-0.9-0.9-0.9h-0.4c-0.5,0-0.9,0.4-0.9,0.9
			c0,0.3-0.4,0.5-0.6,0.3c-0.3-0.3-0.9-0.3-1.3,0l-0.3,0.3c-0.3,0.3-0.3,0.9,0,1.3C29,30.5,28.9,30.9,28.6,30.9L28.6,30.9z M29.1,30
			c-0.2-0.2-0.2-0.4,0-0.6l0.3-0.3c0.2-0.2,0.4-0.2,0.6,0c0.5,0.5,1.4,0.2,1.4-0.6c0-0.2,0.2-0.4,0.4-0.4h0.4c0.2,0,0.4,0.2,0.4,0.4
			c0,0.7,0.9,1.1,1.4,0.6c0.2-0.2,0.4-0.2,0.6,0l0.3,0.3c0.2,0.2,0.2,0.4,0,0.6c-0.5,0.5-0.1,1.4,0.6,1.4h0c0.2,0,0.4,0.2,0.4,0.4
			v0.4c0,0.2-0.2,0.4-0.4,0.4c0,0,0,0,0,0c-0.7,0-1.1,0.9-0.6,1.4c0.2,0.2,0.2,0.4,0,0.6l-0.3,0.3c-0.2,0.2-0.4,0.2-0.6,0
			c-0.5-0.5-1.4-0.2-1.4,0.6c0,0.2-0.2,0.4-0.4,0.4h-0.4c-0.2,0-0.4-0.2-0.4-0.4c0-0.7-0.9-1.1-1.4-0.6c-0.2,0.2-0.4,0.2-0.6,0
			l-0.3-0.3c-0.2-0.2-0.2-0.4,0-0.6c0.5-0.5,0.2-1.4-0.6-1.4c-0.2,0-0.4-0.2-0.4-0.4v-0.4c0-0.2,0.2-0.4,0.4-0.4h0
			C29.3,31.4,29.6,30.5,29.1,30L29.1,30z"/>
	</g>
</g>
</svg>
