<?xml version="1.0" encoding="utf-8"?>
<!-- Generator: Adobe Illustrator 23.0.6, SVG Export Plug-In . SVG Version: 6.00 Build 0)  -->
<svg version="1.1" id="Layer_1" xmlns="http://www.w3.org/2000/svg" xmlns:xlink="http://www.w3.org/1999/xlink" x="0px" y="0px"
	 viewBox="0 0 64 64" style="enable-background:new 0 0 64 64;" xml:space="preserve">
<style type="text/css">
	.st0{fill:url(#SVGID_1_);}
	.st1{fill:#FFFFFF;}
</style>
<linearGradient id="SVGID_1_" gradientUnits="userSpaceOnUse" x1="5.5304" y1="754.2715" x2="57.5711" y2="699.1699" gradientTransform="matrix(1 0 0 1 0 -694.252)">
	<stop  offset="0" style="stop-color:#AA0004"/>
	<stop  offset="1" style="stop-color:#FF151B"/>
</linearGradient>
<path class="st0" d="M51.7,64H12.3C5.5,64,0,58.5,0,51.7V12.3C0,5.5,5.5,0,12.3,0h39.3C58.5,0,64,5.5,64,12.3v39.3
	C64,58.5,58.5,64,51.7,64z"/>
<g>
	<g>
		<path class="st1" d="M30.3,40.1c1.1,0.8,3.3,1,6.4,1c3.1,0,7.3-1.1,7.3-1.1l-1.4-1.1c0,0-1.9,0.7-5.5,0.7c-0.4,0-0.9,0-1.3,0
			c-3.1,0-5.7-0.1-4.1-1.5C29.7,38.7,29.2,39.5,30.3,40.1z"/>
		<path class="st1" d="M31.7,44.4c1.2,0.5,3.1,0.8,4.9,0.8c0.8,0,1.6,0,2.3-0.1c2.3-0.3,4.4-1.1,4.4-1.1s-1.3-0.4-1.9-1.1
			c0,0-2.8,0.6-5.4,0.6s-4.7-0.2-3.7-1.3C30.5,42.8,30.1,43.6,31.7,44.4z"/>
		<path class="st1" d="M37.4,21.3c-4.2,3.5-4.8,3.5-4.8,5.7c0,2.2,3.2,5.6,4.7,6.6c0,0-0.2-0.7-0.9-1.5c-0.6-1-2.3-2.5-2-5
			c0.3-2.4,5.5-5.5,6.8-7.8c1.3-2.5,1-4.4-0.2-6.1C41.8,16.3,41.6,17.8,37.4,21.3z"/>
		<path class="st1" d="M26.8,35.9c0,0.7,3.3,1.3,7.4,1.3c0.6,0,1.3,0,1.9,0c4.8-0.3,7.4-0.8,9.3-1.9c0,0-3.4,0.8-6.1,0.8
			c-1.2,0-3.3,0.1-5.3,0.1c-2.5,0-4.7-0.1-4.7-0.7c0.2-1.1,4.5-1.5,4.5-1.5h-0.9C29.3,33.8,26.8,35.2,26.8,35.9z"/>
		<path class="st1" d="M49.7,33.8c-0.6-0.2-1.1-0.3-1.6-0.3c-1.2,0-1.6,0.7-1.6,0.7c0.3-0.1,0.7-0.2,1.1-0.2c1,0,2.1,0.5,2.2,2.3
			c0.1,2.5-4.5,4.5-4.5,4.5s2.4-0.4,4.5-2C51.9,37.4,52,34.8,49.7,33.8z"/>
		<path class="st1" d="M43.8,50.4c5.1-0.4,7.2-1.7,7.4-3.1c0,0-2.3,1.3-5.2,1.9c-1.8,0.4-4.5,1-8.9,1c-2.3,0-5.1-0.1-8.4-0.5
			c0,0,1.5,1.2,7.8,1.2C38.5,50.8,40.9,50.6,43.8,50.4z"/>
		<path class="st1" d="M35.6,48.7c3,0,12.9-0.3,14-2.5c0.2-0.4,0-0.8-0.4-1.1c0,0,0.7,1.1-1.2,1.5c-1.3,0.4-6.8,1.1-12.5,1.1
			c-2.6,0-5.2-0.2-7.4-0.6c-3.2-0.6-1.4-1.4,1.4-2.3c-0.2,0-0.4-0.1-0.7-0.1c-1.8,0-5,0.9-5,2.3C23.7,48.7,32.6,48.7,35.6,48.7z"/>
		<path class="st1" d="M37.5,27.7c0,3.6,2.3,3,2.3,5c0,1.6-0.9,2.2-1.2,2.4c0.6-0.2,3.2-1.5,3.1-3.8c-0.1-2.5-2.1-2.2-2.1-4.5
			c0.1-3,6.1-5.7,6.1-5.7C42.1,22.2,37.5,24,37.5,27.7z"/>
		<path class="st1" d="M38.6,35c-0.1,0-0.1,0-0.1,0S38.6,35,38.6,35z"/>
	</g>
	<path class="st1" d="M35.7,20.8c0.3-0.2,0.5-0.4,0.8-0.7l-1.1-0.2c-1-0.4-2.1-0.8-3.1-1.3c-0.7-0.3-1.1-0.8-1.1-1.6
		c0-0.2,0-0.4,0-0.6v-0.1c0-0.2,0-0.4,0-0.6c0-0.3-0.1-0.4-0.4-0.4c-1,0-2.1,0-3.1,0c-0.3,0-0.4,0.1-0.4,0.4l0,0.1c0,0.4,0,0.7,0,1
		c0,0.8-0.4,1.4-1.1,1.7c-1.1,0.5-2.1,0.9-3.2,1.4l-1.3,0.6c-0.7,0.3-1.3,0.2-1.9-0.4c-0.1-0.1-0.3-0.3-0.4-0.4
		c-0.1-0.1-0.3-0.3-0.4-0.4c-0.2-0.2-0.3-0.2-0.6,0c-0.7,0.7-1.4,1.4-2.1,2.1c-0.3,0.3-0.3,0.3,0,0.6c0.1,0.2,0.3,0.3,0.4,0.4
		c0.2,0.2,0.4,0.4,0.5,0.5c0.5,0.5,0.6,1.1,0.4,1.8c-0.4,1-0.8,2-1.2,3l-0.4,1c-0.3,0.7-0.8,1-1.5,1.1l-1.3,0
		c-0.4,0-0.5,0.1-0.5,0.4c0,1,0,2,0,3c0,0.4,0.1,0.5,0.5,0.5c0.4,0,0.8,0,1.2,0l0.1,0c0.7,0,1.3,0.4,1.6,1.1c0.6,1.5,1.3,3,1.9,4.6
		c0.3,0.7,0.2,1.3-0.3,1.8c-0.2,0.2-0.3,0.3-0.5,0.5l-0.4,0.4c-0.2,0.2-0.2,0.3,0,0.6c0.7,0.7,1.4,1.4,2.1,2.1
		c0.3,0.3,0.3,0.3,0.6,0c0.2-0.2,0.3-0.3,0.5-0.5c0.2-0.2,0.4-0.4,0.6-0.6c0.5-0.5,1.1-0.6,1.7-0.4c0.3,0.1,0.7,0.3,1,0.4l0.4,0.1
		c1.5-1.4,4-2.1,5.9-2.2c-1-1-1.1-2-1.1-2.6c-1.6-0.5-2.6-1.4-2.9-2.6c-1.5-1.2-2.3-2.9-2.3-4.8c0-3.3,2.7-6,6.1-6
		c0.7,0,1.4,0.1,2,0.3C31.4,23.7,33.5,22.6,35.7,20.8z"/>
</g>
</svg>
