<svg width="64" height="64" viewBox="0 0 64 64" fill="none" xmlns="http://www.w3.org/2000/svg">
<rect x="5.00024" y="9.00012" width="53.9999" height="49.9999" rx="7.99998" fill="url(#paint0_linear_2689_60601)"/>
<rect x="5.00024" y="9.00012" width="53.9999" height="49.9999" rx="7.99998" fill="black" fill-opacity="0.3"/>
<rect x="5" y="5" width="53.9999" height="49.9999" rx="7.99998" fill="url(#paint1_linear_2689_60601)"/>
<path d="M35.7888 10.1989C35.7888 10.1989 39.6317 14.1033 32.1327 19.9912C26.1207 24.7632 30.7697 27.4902 32.1327 30.5895C28.5995 27.4287 26.0592 24.639 27.7945 22.0373C30.3348 18.1933 37.3385 16.3455 35.7888 10.1989ZM33.8169 27.9866C35.6148 30.0316 33.3216 31.891 33.3216 31.891C33.3216 31.891 37.908 29.5363 35.8004 26.6225C33.8795 23.834 32.3902 22.47 40.4483 17.8221C40.4483 17.8221 27.7435 20.9829 33.8169 27.9866Z" fill="url(#paint2_linear_2689_60601)"/>
<path d="M40.3447 17.4081C40.3447 17.4081 40.3453 17.4081 40.4483 17.8221L40.3447 17.4081C41.2179 17.2415 41.5212 17.3941 42.0571 17.6652L40.6614 18.1918C38.6559 19.3486 37.2642 20.2901 36.33 21.09C35.3915 21.8937 34.9522 22.523 34.7896 23.0462C34.634 23.5469 34.7139 24.0098 34.968 24.5403C35.2319 25.0914 35.6524 25.6561 36.1462 26.3727L36.252 26.5264C36.7561 27.2952 36.8694 28.0561 36.7195 28.7634C36.5638 29.4984 36.1333 30.1333 35.6642 30.6395C35.1922 31.1487 34.6559 31.555 34.243 31.8319C34.0354 31.9712 33.8562 32.0795 33.728 32.1536C33.6639 32.1906 33.6125 32.2194 33.5764 32.239C33.5583 32.2488 33.5439 32.2562 33.5339 32.2615C33.5288 32.2642 33.5247 32.2662 33.5218 32.2677C33.5204 32.2684 33.5185 32.2694 33.5185 32.2694L33.5172 32.2702L33.3216 31.891L33.5164 32.2707C33.1806 32.4069 32.4577 31.891 33.056 31.564L33.0526 31.5599C33.0526 31.5599 33.0539 31.5589 33.0547 31.5582C33.0574 31.556 33.0618 31.552 33.0681 31.5465C33.0809 31.5355 33.1011 31.5178 33.1268 31.494C33.1783 31.4464 33.2517 31.3745 33.3355 31.282C33.5049 31.095 33.7081 30.8323 33.8593 30.5199C34.01 30.2085 34.103 29.8609 34.073 29.4941C34.0434 29.133 33.8917 28.7181 33.4964 28.2684L33.4947 28.2663C31.916 26.4458 31.4945 24.7941 31.8781 23.3353C32.2535 21.9082 33.372 20.782 34.613 19.9268C35.8626 19.0656 37.2976 18.4369 38.4098 18.0252C38.968 17.8186 39.4496 17.665 39.7923 17.5627C39.9636 17.5116 40.1005 17.4734 40.1952 17.4477C40.2425 17.4349 40.2794 17.4251 40.3047 17.4186C40.3173 17.4153 40.3271 17.4128 40.3339 17.4111C40.3372 17.4102 40.34 17.4094 40.3418 17.409L40.3447 17.4081ZM40.4483 17.8221C40.4483 17.8221 27.7435 20.9829 33.8169 27.9866C35.6097 30.0258 33.3346 31.8804 33.3216 31.891C33.346 31.8785 37.9023 29.5285 35.8004 26.6225C33.8795 23.834 32.3902 22.47 40.4483 17.8221ZM36.0929 9.8998L35.7888 10.1989C36.0753 9.91692 36.0921 9.90088 36.0933 9.90021L36.0941 9.90105L36.0958 9.9023C36.0969 9.90347 36.098 9.90522 36.0996 9.90688C36.1028 9.91021 36.1071 9.9145 36.1121 9.9198C36.1219 9.93036 36.1352 9.94487 36.1512 9.96313C36.1833 9.99977 36.227 10.0519 36.2783 10.119C36.3809 10.2532 36.5151 10.4485 36.6491 10.701C36.9173 11.2064 37.1867 11.9447 37.1995 12.8813C37.2253 14.7732 36.2067 17.3339 32.3977 20.3251C30.9262 21.493 30.1515 22.5025 29.8012 23.3824C29.4569 24.2469 29.5074 25.0245 29.7699 25.7769C30.0387 26.5472 30.5263 27.2838 31.0623 28.0534C31.5849 28.8036 32.1615 29.5956 32.5231 30.4179C32.8574 31.3488 32.8106 31.5769 31.8481 30.9074C30.0845 29.3296 28.5198 27.804 27.6229 26.3252C27.1715 25.5807 26.8738 24.8236 26.818 24.0578C26.7615 23.2825 26.9554 22.5264 27.4396 21.8004C28.112 20.7836 29.0682 19.9144 30.0632 19.1001C31.0776 18.27 32.1103 17.5127 33.0376 16.6665C33.9557 15.8288 34.7158 14.9492 35.1596 13.9308C35.5984 12.9239 35.7405 11.7527 35.375 10.3031L34.9913 8.78027L36.0929 9.8998ZM35.7888 10.1989C37.3385 16.3455 30.3348 18.1933 27.7945 22.0373C26.0592 24.639 28.5995 27.4287 32.1327 30.5895C30.7697 27.4902 26.1207 24.7632 32.1327 19.9912C39.6317 14.1033 35.7888 10.1989 35.7888 10.1989Z" fill="url(#paint3_linear_2689_60601)"/>
<path d="M46.1824 43.8224C46.1009 44.8619 45.2121 45.5912 44.0886 46.1046C42.9372 46.6308 41.3803 47.0068 39.6531 47.2648C36.1914 47.7818 31.93 47.8434 28.5623 47.6251C26.344 47.4992 24.9948 47.2476 24.1892 47.0197C23.7858 46.9055 23.5146 46.7968 23.3376 46.7101C23.2493 46.6667 23.1838 46.6282 23.1365 46.5978C23.1129 46.5826 23.0931 46.569 23.0779 46.5577C23.0704 46.5522 23.064 46.5466 23.0583 46.5421L23.0466 46.5333L23.0457 46.5314L23.0447 46.5304C23.0475 46.5269 23.0744 46.494 23.321 46.2062L23.0437 46.5304L21.8875 45.5392L23.3904 45.7853C27.4973 46.4575 34.5129 46.5819 40.1638 45.5382C42.647 45.0792 43.9762 44.5489 44.6716 44.1544C45.0173 43.9583 45.2015 43.7978 45.2927 43.7023C45.3372 43.6556 45.3603 43.6244 45.3689 43.6115L45.3669 43.6144C45.3661 43.6164 45.3651 43.6197 45.364 43.6222C45.3635 43.6233 45.3626 43.6249 45.3621 43.6261L45.3611 43.63C45.3611 43.63 45.3628 43.6304 45.3689 43.6329L46.1101 42.837L46.1824 43.8224ZM23.5203 41.1857C23.8898 41.1965 24.2749 41.261 24.5574 41.4572L25.6755 42.2345H24.3054C24.2958 42.2348 24.2791 42.2352 24.2566 42.2365C24.2111 42.2389 24.139 42.2443 24.0427 42.255C23.8493 42.2764 23.5549 42.3204 23.1687 42.4093L23.1541 42.4132L23.1394 42.4152C22.7808 42.4712 22.007 42.6914 21.4968 42.9542C21.4052 43.0015 21.3282 43.0466 21.2683 43.088H21.2693L21.2712 43.089C22.1344 43.4631 23.6023 43.7382 25.4285 43.9103C27.2407 44.081 29.3615 44.1472 31.5007 44.1241C35.7966 44.0778 40.0985 43.6734 42.113 43.0714C42.6422 42.9094 42.9346 42.7481 43.0886 42.6212C43.2306 42.5041 43.2338 42.4355 43.2341 42.4279C43.2351 42.4069 43.2267 42.3703 43.1921 42.3204C43.1766 42.2981 43.16 42.2798 43.1482 42.2677L43.1404 42.2599L43.0193 42.173C42.8035 42.0135 42.3853 41.6793 42.4841 41.5577L43.4031 41.504H43.5662L43.655 41.5773C44.1196 41.801 44.5348 42.1367 44.5447 42.6398C44.5496 42.8985 44.4394 43.1244 44.2927 43.3068C44.1468 43.4881 43.9459 43.6518 43.7146 43.799C42.8038 44.378 41.1037 44.9092 38.8835 45.3019C34.4112 46.0928 27.6068 46.3568 20.155 45.1407C19.4642 45.0296 18.9424 44.8771 18.5847 44.6769C18.2268 44.4765 17.9408 44.1673 17.9617 43.7384C17.9802 43.3615 18.2375 43.0547 18.4929 42.8331C18.7651 42.5971 19.1273 42.3781 19.5242 42.1837C20.3207 41.7936 21.3315 41.4682 22.239 41.3029C22.6928 41.2202 23.1348 41.1743 23.5203 41.1857ZM27.7644 38.3575C27.7271 38.8364 27.713 39.1145 27.4558 39.257V39.2589C27.4549 39.2597 27.4534 39.2618 27.4519 39.2628C27.446 39.2667 27.4364 39.273 27.4246 39.2814C27.3995 39.299 27.3658 39.3243 27.3328 39.3536C27.3219 39.3633 27.313 39.3736 27.3044 39.382C27.4296 39.4405 27.6614 39.5099 28.0623 39.5626L28.2703 39.587H28.2751L28.281 39.588C31.1426 39.9528 32.6481 39.8941 35.8308 39.2823L35.9929 39.2511L36.1345 39.337C36.7583 39.719 37.418 40.0398 38.1042 40.2931L39.1091 40.6642L38.1238 41.0851C34.4022 42.676 30.1986 42.6303 27.6326 41.9747C26.9889 41.8103 26.4308 41.6029 26.0017 41.3624C25.5902 41.1317 25.2217 40.8273 25.0828 40.4337C25.0085 40.2229 25.0051 39.9981 25.0847 39.7794C25.1618 39.5683 25.3068 39.3887 25.4851 39.2374C25.8353 38.9404 26.3857 38.6918 27.1189 38.4845L27.7644 38.3575ZM41.1501 30.1261C43.5378 29.2853 45.8312 30.5228 46.1375 32.5079C46.2901 33.4989 45.9189 34.5836 44.9285 35.5558C43.9438 36.5222 42.3398 37.3908 39.9724 38.006L38.4548 38.4005L39.5564 37.298C39.5577 37.2964 39.5605 37.2938 39.5632 37.2902C39.5729 37.2772 39.5904 37.2519 39.6091 37.215C42.9763 35.4485 43.9181 33.6052 43.7546 32.6525C43.5838 31.6599 42.478 31.0188 41.5642 31.1935C41.3067 31.2512 41.1239 31.3084 41.0095 31.3488C40.9518 31.3691 40.9105 31.3855 40.8865 31.3956C40.875 31.4005 40.867 31.4036 40.863 31.4054L39.991 31.839L40.1628 32.4073V32.4083H40.1609C40.1592 32.4091 40.1564 32.4108 40.1531 32.4122C40.1462 32.4153 40.1352 32.4199 40.1218 32.4259C40.0945 32.4381 40.0538 32.4567 40.0037 32.4796C39.9027 32.5259 39.7607 32.5918 39.5984 32.671C39.27 32.8314 38.8682 33.0404 38.5476 33.2443L38.491 33.2804L38.4265 33.297C34.929 34.2111 29.86 34.4588 26.1472 34.2482C24.3019 34.1435 22.7319 33.9224 21.8513 33.588C21.6287 33.5034 21.4229 33.4017 21.2634 33.2745C21.1068 33.1496 20.9428 32.9566 20.9255 32.6886C20.9083 32.4176 21.0494 32.2011 21.2039 32.049C21.3596 31.8957 21.5759 31.7593 21.8308 31.6339L21.8337 31.632C23.4921 30.8344 25.0087 30.483 26.113 30.3312C26.6651 30.2553 27.1158 30.2288 27.4304 30.2218C27.5873 30.2183 27.711 30.2196 27.7966 30.2218C27.8189 30.2224 27.8391 30.2241 27.8562 30.2247C28.4432 30.3275 28.5931 30.5422 28.6228 31.132L27.9343 31.0831L27.9333 31.0841C27.8861 31.0958 27.8158 31.1127 27.7292 31.1349C27.5557 31.1794 27.3123 31.2437 27.0339 31.3224C26.473 31.481 25.7822 31.6953 25.2322 31.922C24.9827 32.0249 24.7767 32.1257 24.6287 32.2169C24.7886 32.2689 25.0232 32.3226 25.3523 32.3712L25.5417 32.3976H25.5447C27.3556 32.6393 30.9698 32.5806 34.3748 32.3341C35.7575 32.211 37.1436 32.027 38.1853 31.8732C38.7056 31.7963 39.1398 31.7268 39.4431 31.6769C39.5945 31.652 39.7138 31.6321 39.7947 31.6183C39.8347 31.6114 39.8658 31.6053 39.8865 31.6017C39.8957 31.6001 39.9038 31.5987 39.9089 31.5978L40.2917 30.8331V30.8322L40.2986 30.8185C40.3018 30.8125 40.3064 30.8046 40.3113 30.796C40.3212 30.7786 40.3351 30.7558 40.3523 30.7296C40.3871 30.6767 40.4386 30.6066 40.5076 30.5323C40.6413 30.3884 40.8522 30.2183 41.1501 30.1271V30.1261ZM26.5632 35.2032L26.5652 35.2062C26.5639 35.2073 26.5614 35.2095 26.5583 35.212C26.5512 35.2178 26.5393 35.2271 26.5251 35.2394C26.4957 35.265 26.4553 35.3027 26.4138 35.3468C26.3198 35.4468 26.2617 35.5381 26.2468 35.5948V35.5978C26.2521 35.6035 26.2607 35.6124 26.2751 35.6232C26.3746 35.6974 26.6347 35.809 27.2185 35.8693C30.3459 36.1756 32.7808 36.2361 37.0076 35.38L37.2341 35.3341L37.3953 35.4982C37.7643 35.8724 38.2174 36.1558 38.7156 36.3234L39.991 36.7521L38.7009 37.1359C34.2686 38.4559 29.5667 38.5228 26.739 37.9825C26.0307 37.8472 25.4208 37.6704 24.9558 37.4552C24.5164 37.2518 24.1045 36.9677 23.9548 36.5597C23.7772 36.0744 24.0301 35.6427 24.406 35.3302C24.7808 35.0188 25.3484 34.8921 26.1472 34.6232L28.0623 34.5177L26.5632 35.2032ZM35.8386 36.0333C35.9932 36.0064 36.1508 35.9799 36.3103 35.9503L36.3582 35.9406C36.1821 35.9734 36.0087 36.0037 35.8386 36.0333ZM37.8074 33.0079C37.8687 32.9936 37.9305 32.9816 37.991 32.9669L38.3181 32.8839C38.1517 32.9274 37.9809 32.9675 37.8074 33.0079Z" fill="url(#paint4_linear_2689_60601)"/>
<rect x="5.7" y="5.7" width="52.5999" height="48.5999" rx="7.29998" stroke="url(#paint5_linear_2689_60601)" stroke-width="1.4" style="mix-blend-mode:soft-light"/>
<g opacity="0.6">
<rect x="5.7" y="5.7" width="52.5999" height="48.5999" rx="7.29998" stroke="url(#paint6_linear_2689_60601)" stroke-width="1.4" style="mix-blend-mode:soft-light"/>
</g>
<defs>
<linearGradient id="paint0_linear_2689_60601" x1="5.00024" y1="59" x2="59.0001" y2="59" gradientUnits="userSpaceOnUse">
<stop stop-color="#A0A0A0"/>
<stop offset="0.05" stop-color="#D3D3D3"/>
<stop offset="0.15" stop-color="#4E5668"/>
<stop offset="0.85" stop-color="#4E5668"/>
<stop offset="0.95" stop-color="#D3D3D3"/>
<stop offset="1" stop-color="#A0A0A0"/>
</linearGradient>
<linearGradient id="paint1_linear_2689_60601" x1="31.9999" y1="5" x2="31.9999" y2="54.9999" gradientUnits="userSpaceOnUse">
<stop stop-color="#1D2C59"/>
<stop offset="1" stop-color="#323945"/>
</linearGradient>
<linearGradient id="paint2_linear_2689_60601" x1="34.4328" y1="8.78027" x2="34.4328" y2="32.2931" gradientUnits="userSpaceOnUse">
<stop stop-color="#FFA0A1"/>
<stop offset="0.740385" stop-color="#EF0104"/>
</linearGradient>
<linearGradient id="paint3_linear_2689_60601" x1="34.4328" y1="8.78027" x2="34.4328" y2="32.2931" gradientUnits="userSpaceOnUse">
<stop stop-color="#FFA0A1"/>
<stop offset="0.740385" stop-color="#EF0104"/>
</linearGradient>
<linearGradient id="paint4_linear_2689_60601" x1="32.0006" y1="32.9569" x2="32.0006" y2="44.9598" gradientUnits="userSpaceOnUse">
<stop offset="0.811456" stop-color="#E8EEFF"/>
<stop offset="1" stop-color="#FFF7F8"/>
</linearGradient>
<linearGradient id="paint5_linear_2689_60601" x1="31.9999" y1="1.00001" x2="31.9999" y2="60.9999" gradientUnits="userSpaceOnUse">
<stop stop-color="white"/>
<stop offset="1" stop-color="white"/>
</linearGradient>
<linearGradient id="paint6_linear_2689_60601" x1="31.9999" y1="1.00001" x2="31.9999" y2="60.9999" gradientUnits="userSpaceOnUse">
<stop stop-color="white"/>
<stop offset="1" stop-color="white"/>
</linearGradient>
</defs>
</svg>
